<?xml version="1.0" encoding="utf-8"?>
<!-- Generator: Adobe Illustrator 27.2.0, SVG Export Plug-In . SVG Version: 6.00 Build 0)  -->
<svg version="1.1" id="Layer_1" xmlns="http://www.w3.org/2000/svg" xmlns:xlink="http://www.w3.org/1999/xlink" x="0px" y="0px"
	 viewBox="0 0 1053.2 313.4" style="enable-background:new 0 0 1053.2 313.4;" xml:space="preserve">
<style type="text/css">
	.st0{fill:#E26225;}
	.st1{fill:#FFFFFF;}
</style>
<g>
	<path class="st0" d="M525.6,118.7c-1,1.1-2,2.1-3,3.2c2-0.1,4-0.1,6-0.1c6.9-0.1,13.7-0.1,20.6-0.1h39.5v30.3H477.2v-22.3
		l50.6-65.5c4-5.2,8.3-10.4,13.2-15.6c0.8-0.9,1.6-1.8,2.5-2.7c-1.5,0-3,0.1-4.5,0.1c-6.5,0.1-13,0.1-19.4,0.1h-41.8V15.8h111.1
		v22.3l-49.5,64.5C535.1,108,530.5,113.3,525.6,118.7L525.6,118.7L525.6,118.7z"/>
	<path class="st0" d="M713.4,51.1l-41.8,110.8c-2.1,5.7-4.9,10.7-8.3,15.1c-3.4,4.3-7.8,7.7-13.1,10.1s-11.9,3.6-19.9,3.6
		c-4.2,0-8.3-0.2-12.4-0.7c-4.1-0.5-7.8-1.1-10.9-2l6.3-26.5l6.9,1c3.6,0.8,6.7,0.9,9.2,0.5c2.6-0.5,4.4-1.5,5.6-2.9
		c1.2-1.5,1.6-3.3,1.1-5.5l-0.7-2.6L597.8,51.1h38.5l13,45.3c1.9,6.9,3.5,13.8,4.8,20.8c0.2,1.3,0.5,2.6,0.7,3.9
		c0.3-1.3,0.6-2.7,0.9-3.9c1.7-7.1,3.5-14,5.6-20.7l14.2-45.3L713.4,51.1L713.4,51.1L713.4,51.1z"/>
	<path class="st0" d="M760.2,15.8v136.1h-36.7V15.8H760.2z"/>
	<path class="st0" d="M796.4,41.6c-5.2,0-9.5-1.7-13.1-5s-5.3-7.3-5.3-12s1.8-8.9,5.3-12.1c3.6-3.3,7.9-4.9,13.1-4.9s9.5,1.6,13,4.9
		c3.6,3.3,5.3,7.3,5.3,12.1s-1.8,8.8-5.3,12.1C805.9,40,801.5,41.6,796.4,41.6L796.4,41.6z M778,151.9V51.1h36.7v100.8H778
		L778,151.9z"/>
	<path class="st0" d="M934.9,87.8v64.1h-36.6V95.7c0-5.1-1.2-9-3.7-11.8s-6-4.2-10.6-4.2c-3,0-5.6,0.7-7.7,2c-2.2,1.3-3.8,3.2-5,5.6
		c-1.2,2.4-1.8,5.3-1.8,8.8v56h-36.7V51.1h34.8l0.5,21.2c2.4-5.7,5.7-10.7,9.8-14.8c5.3-5.3,12.7-7.9,22.2-7.9
		c7.2,0,13.5,1.6,18.7,4.8c5.2,3.2,9.2,7.7,12,13.5S934.9,80.3,934.9,87.8L934.9,87.8L934.9,87.8z"/>
	<path class="st0" d="M1051.4,101.3c0-7.9-1.2-15.1-3.6-21.4s-5.8-11.8-10.3-16.3c-4.4-4.5-9.8-8-16-10.4
		c-6.2-2.4-13.2-3.6-20.8-3.6c-10.4,0-19.5,2.2-27.2,6.5c-7.7,4.3-13.7,10.4-17.9,18.3c-4.3,7.8-6.4,16.9-6.4,27.3
		s2.1,20.1,6.4,27.9s10.3,13.8,18.1,18c7.8,4.2,17.1,6.3,27.8,6.3c8.7,0,16.3-1.3,23-3.8c6.7-2.5,12.2-6.1,16.7-10.7
		c4.4-4.6,7.4-10,9-16.2l-32.3-3.7c-0.7,1.8-1.8,3.4-3.3,4.7c-1.5,1.3-3.2,2.3-5.3,3s-4.4,1-6.8,1c-3.5,0-6.6-0.7-9.2-2.2
		c-2.6-1.4-4.6-3.6-6-6.4c-1.3-2.6-2-5.8-2.1-9.5h66.3L1051.4,101.3L1051.4,101.3L1051.4,101.3z M985.4,89.9c0.3-2.3,0.8-4.3,1.6-6
		c1.2-2.7,3.1-4.8,5.4-6.3s5.3-2.2,8.8-2.2s6.5,0.7,8.9,2.2s4.2,3.6,5.4,6.3c0.8,1.8,1.3,3.8,1.6,6H985.4L985.4,89.9z"/>
</g>
<g>
	<path class="st0" d="M250.7,91.6c-3.2-1.5-9.2-4.2-15.5-6.3c-0.8-0.3-1.7-0.2-2.4,0.3c-0.7,0.5-1.1,1.3-1.2,2.1
		c-0.5,9.1-1.8,33.1-2.5,41.6l7.9-10l10.6,3.8c1.2,0.4,2.6,0.2,3.7-0.5c1.1-0.8,1.7-2,1.7-3.3V95.3
		C253.1,93.7,252.2,92.3,250.7,91.6z M298,194.9l143.2,13.2L297.5,172l134,19.9L297.1,150l133.1,28l-133-48.9L429,163.9l-134.1-58.4
		l132.9,44.2L294.3,83.9l132.4,51.4L294,61.6l131.5,59.2L292.3,38l131.8,69.2L282.7,17.8c-0.3-0.2-0.6-0.2-0.9,0s-0.5,0.5-0.5,0.8
		v108.1H277l-1.2-77.6c-3.8-0.2-4.2,0-4.2,0V8.6c0,0,3.8-4.4,0-7.5c-3.8-3.2-6.1,2-6.1,2s-1.4,4.4-1.4,5.6v10.2L137.4,33.1
		l-0.3,35.7c0,0-3.4,0.6-4.6,0.7V25.8c0,0,3.8-4.4,0-7.5s-6.1,2-6.1,2s-1.4,4.4-1.4,5.5v30.8c-1.3,0.2-2.8,0.5-4,1.2v13.5
		c-8.4,1.7-18.1,7-20.2,13c8.8-2,45-9.2,126.7-10.5c0,0,17.6,3.9,33.2,13.1l-0.1,107.6c0,0,0.9,6.3-4.4,6.1
		c-5.2-0.3-14.4-3.2-14.8-3.4c0.2,0.5,5.6,17.9,6.6,49.6l-4.7,0.4c0,0,0.5-62-24.3-62c-12.7,0-16.6,21.6-16.6,21.6h-56.2l-7.5,9.4
		l1.1-12.5l-97.1,2.1l0.1-2.1c0.2-2.4,2.1-4.3,4.6-4.4l96.2-1.7l10.5-0.1v-9.2c0-3.1,2.5-5.5,5.5-5.5h21.1v14.7h1.8
		c1,0,2-0.4,2.7-1.1c0.7-0.7,1.1-1.7,1.1-2.7l-0.2-11.1c-0.1-2.8,1.1-5.5,3.2-7.5c3.7-3.4,10.9-7.5,23.5-5.7
		c-6.8-6.2-39.4-10.6-66.9,5.8c-0.2-0.1-0.5-0.3-0.7-0.5c-0.8-0.8-1.2-1.8-1.2-2.9l0.4-31.2c0.1-5.4,3.9-10,9.2-11l49.1-8.7
		c3.6-0.7,8.8-0.7,12.3,0.8c6.2,2.6,9.6,6.7,9.6,6.7l1.5-41.3c0.1-1.3-0.4-2.5-1.3-3.5c-0.9-0.9-2.1-1.4-3.4-1.4
		c-24.8,0.2-45.7,1.3-62.8,2.6l-6.2,0.5c-22.6,1.9-37.9,4.3-46.5,5.9c-2.7,0.5-4.9,2.6-5.5,5.3l-6,28.5l-47,8.9
		c-4.3,0.8-7.5,4.4-7.8,8.7L37.1,175c-9.1,0.5-15.4,2.7-19.5,4.9c-3.6,1.9-5.9,5.6-6,9.6l-0.5,15.7c0,1,0.4,2,1.1,2.7
		c0.7,0.7,1.7,1.1,2.7,1.1l19.4-0.5l-0.1,3.6l-16.9,0.6c-5.1,0.2-14.6,4.8-15.1,8.7c-0.2,1.1-0.5,4.6-0.6,6
		c16-0.6,112.4-3.9,150.7-3.9c15.9,0,42.9,0.2,45.8,1.2l-2.1,6c0,0,0.1,0,0.2,0.1c-0.9-0.1-7.5-0.9-43.9-0.9
		c-5.8,0-12.9,0.1-20.9,0.2c-0.2,9.3,0.1,22.4,0.1,22.4H128c-0.4-7.8-0.2-17.5-0.1-22.3c-8.1,0.2-17,0.4-26.2,0.6l0,14.2l-48.7,0.6
		V232c-8,0.2-15.5,0.5-22.3,0.7c-0.1,8.9,0.1,19.7,0.1,19.7h-3.6c-0.4-6.5-0.3-14.3-0.2-19.5c-12.6,0.4-22,0.7-25.7,0.9
		c-0.1,9,0.9,20.3,5.8,27.6h9.2c1.3,8.7,4.4,14.5,7.4,18.1c3.5,4.4,6.8,5.8,6.8,5.8h31.1c2.9-1.5,5.2-3.5,7.2-5.8
		c4.6-5.5,6.7-12.6,7.7-18.1h105.7c0,0,2.5,10.8,6.3,18.1c2,3.9,4.3,6.8,6.8,6.8h30.1c3.7,0,6.6-3.1,8.8-6.8
		c2.5-4.3,4.1-9.4,4.6-11.6h9.3c0,0,0,8.8,3.8,11.6c0.7,0.6,1.6,0.9,2.7,0.9h51.8c0.8,0,1.5-0.3,2-0.9c2.7-2.6,3.4-9.8,3.4-9.8h35.6
		c0,0,1.5,6.8,4.1,9.8c0.7,0.9,1.6,1.5,2.4,1.5h48.3c0.8,0,1.5-0.5,2.3-1.5c3-4,5.4-16.9,5.4-43.9h14.8l0.8-12.4l17.4-2.4L298,194.9
		L298,194.9z M53.3,146l70.9-4.2c1.4-0.1,2.8,0.4,3.9,1.4c1.1,1,1.6,2.4,1.6,3.8l-81.4,4C48.4,148.3,50.6,146.2,53.3,146z
		 M52.7,157.5l71.3-3.4c1.4-0.1,2.9,0.5,3.9,1.5c1,1,1.6,2.4,1.6,3.9l-81.9,3.1C47.8,159.8,50,157.6,52.7,157.5z M52.1,169l71.6-2.6
		c1.5-0.1,2.9,0.5,4,1.5c1.1,1,1.6,2.4,1.6,3.9L47,174C47.1,171.2,49.4,169.1,52.1,169L52.1,169z M51.5,180.6l72-1.8
		c1.5,0,2.9,0.5,4,1.6c1,1.1,1.6,2.5,1.6,4l-82.8,1.2C46.5,182.8,48.7,180.6,51.5,180.6z M35.1,201.4H16v-8.3c0-2.2,1.8-4,4-4h15.8
		L35.1,201.4L35.1,201.4z M222.6,268.8c-5,0-9.2-7.2-10.9-17.3c2,3.5,4.4,5.7,7.1,5.7c6.4,0,11.7-12.1,11.7-27
		c0-3.4-0.3-6.7-0.8-9.7c2.8,4.9,4.6,12.7,4.6,21.4C234.3,256.7,229,268.8,222.6,268.8L222.6,268.8z M384.9,262.4
		c2.6,0,4.7-7.6,4.7-17.1c0-2.1-0.1-4.2-0.3-6.1c1.1,3.1,1.8,8,1.8,13.5c0,9.4-2.1,17.1-4.7,17.1c-2,0-3.7-4.5-4.4-10.9
		C382.8,261.1,383.8,262.4,384.9,262.4z M336,244.7c0,0-0.6-16.2,3-23c0,0,5.6,3.2,18.3-7.8l22.4,3.1c0,0-4.8,3-4.8,27.7h-6.6
		c-0.1-5.1-1-11,2.5-22c0,0-6.8,6.5-8.4,22H336L336,244.7z M400.5,269.8c-2,0-3.7-4.5-4.4-10.9c0.8,2.2,1.8,3.6,2.9,3.6
		c2.6,0,4.7-7.6,4.7-17.1c0-2.1-0.1-4.2-0.3-6.1c1.1,3.1,1.8,8,1.8,13.5C405.2,262.1,403.1,269.8,400.5,269.8z M236.1,146.7l-6-2.4
		c-0.5-0.2-1.1-0.1-1.6,0.2c-0.5,0.3-0.8,0.9-0.8,1.4v29.2c0,0.7,0.4,1.3,1.1,1.6l6,2.4c0.5,0.2,1.1,0.2,1.6-0.2
		c0.5-0.3,0.8-0.9,0.8-1.4v-29.2C237.2,147.6,236.7,147,236.1,146.7L236.1,146.7z M253.7,164.9l-3.9-1.6c-0.3-0.1-0.7-0.1-1.1,0.1
		c-0.3,0.2-0.5,0.6-0.5,0.9v19.1c0,0.5,0.3,0.9,0.7,1.1l3.9,1.6c0.4,0.1,0.8,0.1,1.1-0.1c0.3-0.2,0.5-0.6,0.5-0.9V166
		C254.4,165.5,254.2,165.1,253.7,164.9L253.7,164.9z"/>
	<g>
		<path class="st0" d="M1053.2,201.1v87.1h-580l-46.3,1.7c0,0-314.6-0.8-426.9,23.5v-34h23.9c3.5,4.4,6.8,5.8,6.8,5.8h31.1
			c2.9-1.5,5.2-3.5,7.2-5.8h119.6c2,3.9,4.3,6.8,6.8,6.8h30.1c3.7,0,6.6-3.1,8.8-6.8h17.7c0.7,0.6,1.6,0.9,2.7,0.9h51.9
			c0.8,0,1.5-0.3,2-0.9h43.1c0.7,0.9,1.6,1.5,2.4,1.5h48.3c0.8,0,1.5-0.5,2.3-1.5h11.3l50-78.4L1053.2,201.1L1053.2,201.1z"/>
		<path class="st0" d="M23.9,279.4h45c-1.9,2.3-4.3,4.3-7.2,5.8H30.6C30.6,285.2,27.3,283.8,23.9,279.4z"/>
		<path class="st0" d="M188.5,279.4h45.7c-2.2,3.7-5.2,6.8-8.8,6.8h-30.1C192.8,286.2,190.4,283.3,188.5,279.4z"/>
		<path class="st0" d="M251.9,279.4h56.6c-0.6,0.6-1.2,0.9-2,0.9h-51.9C253.5,280.3,252.6,280,251.9,279.4L251.9,279.4z"/>
		<path class="st0" d="M404.6,279.4c-0.7,1-1.5,1.5-2.3,1.5H354c-0.9,0-1.7-0.6-2.4-1.5H404.6z"/>
	</g>
</g>
<g>
	<path class="st1" d="M487.6,231.1h-10.3v-4.9h26.3v4.9h-10.3v26.1h-5.8V231.1z"/>
	<path class="st1" d="M520.6,233.3v5.3c-0.5-0.1-0.9-0.1-1.3-0.1c-2.2,0-3.8,0.6-5,1.9c-1.2,1.3-1.8,3.1-1.8,5.4v11.5h-5.5v-23.7
		h5.3v3.5C513.8,234.5,516.6,233.3,520.6,233.3z"/>
	<path class="st1" d="M542.2,235.8c1.8,1.7,2.8,4.2,2.8,7.6v13.9h-5.2v-2.9c-0.7,1-1.6,1.8-2.9,2.4c-1.3,0.5-2.8,0.8-4.5,0.8
		s-3.3-0.3-4.7-0.9c-1.3-0.6-2.4-1.4-3.1-2.5c-0.7-1.1-1.1-2.3-1.1-3.7c0-2.1,0.8-3.8,2.4-5.1c1.6-1.3,4.1-1.9,7.5-1.9h6.1V243
		c0-1.7-0.5-2.9-1.5-3.8c-1-0.9-2.5-1.3-4.4-1.3c-1.3,0-2.6,0.2-3.9,0.6c-1.3,0.4-2.4,1-3.3,1.7l-2.2-4c1.2-0.9,2.7-1.7,4.5-2.2
		c1.7-0.5,3.6-0.8,5.5-0.8C537.7,233.3,540.4,234.1,542.2,235.8z M537.1,252.5c1.1-0.6,1.8-1.5,2.3-2.7v-2.7h-5.7
		c-3.2,0-4.8,1-4.8,3.1c0,1,0.4,1.8,1.2,2.4c0.8,0.6,1.9,0.9,3.3,0.9C534.8,253.5,536.1,253.2,537.1,252.5z"/>
	<path class="st1" d="M572.7,235.9c1.8,1.7,2.7,4.3,2.7,7.8v13.6h-5.5v-12.8c0-2.1-0.5-3.6-1.5-4.7c-1-1-2.4-1.6-4.2-1.6
		c-2,0-3.6,0.6-4.8,1.8c-1.2,1.2-1.8,3-1.8,5.3v12h-5.5v-23.7h5.3v3.1c0.9-1.1,2.1-1.9,3.5-2.5c1.4-0.6,3-0.8,4.7-0.8
		C568.5,233.3,570.8,234.2,572.7,235.9z"/>
	<path class="st1" d="M584.1,256.8c-1.8-0.5-3.3-1.1-4.4-1.9l2.1-4.2c1.1,0.7,2.3,1.3,3.8,1.7c1.5,0.4,3,0.6,4.4,0.6
		c3.3,0,5-0.9,5-2.6c0-0.8-0.4-1.4-1.3-1.7c-0.8-0.3-2.2-0.6-4.1-0.9c-1.9-0.3-3.5-0.6-4.8-1c-1.2-0.4-2.3-1.1-3.2-2
		c-0.9-1-1.4-2.3-1.4-4c0-2.2,0.9-4,2.8-5.4c1.9-1.3,4.4-2,7.6-2c1.6,0,3.2,0.2,4.9,0.6c1.6,0.4,3,0.9,4,1.5l-2.1,4.2
		c-2-1.2-4.3-1.8-6.8-1.8c-1.6,0-2.9,0.2-3.7,0.7s-1.3,1.1-1.3,1.9c0,0.9,0.5,1.5,1.4,1.9c0.9,0.4,2.3,0.7,4.2,1
		c1.9,0.3,3.4,0.6,4.7,1c1.2,0.4,2.3,1,3.1,1.9c0.9,0.9,1.3,2.2,1.3,3.9c0,2.2-1,4-2.9,5.3c-1.9,1.3-4.5,2-7.8,2
		C587.8,257.5,585.9,257.3,584.1,256.8z"/>
	<path class="st1" d="M624.5,234.8c1.8,1,3.2,2.4,4.3,4.3c1,1.8,1.5,3.9,1.5,6.3c0,2.4-0.5,4.5-1.5,6.4c-1,1.8-2.5,3.3-4.3,4.3
		c-1.8,1-3.9,1.5-6.2,1.5c-3.2,0-5.7-1.1-7.6-3.2v11.5h-5.5v-32.2h5.3v3.1c0.9-1.1,2-2,3.4-2.5c1.3-0.6,2.8-0.8,4.5-0.8
		C620.6,233.3,622.7,233.8,624.5,234.8z M622.7,250.7c1.3-1.4,2-3.1,2-5.4s-0.7-4-2-5.4c-1.3-1.4-3-2-5-2c-1.3,0-2.5,0.3-3.6,0.9
		c-1.1,0.6-1.9,1.5-2.5,2.6c-0.6,1.1-0.9,2.4-0.9,3.9s0.3,2.8,0.9,3.9c0.6,1.1,1.5,2,2.5,2.6c1.1,0.6,2.3,0.9,3.6,0.9
		C619.7,252.8,621.4,252.1,622.7,250.7z"/>
	<path class="st1" d="M639.8,256c-1.9-1-3.4-2.5-4.5-4.3c-1.1-1.8-1.6-3.9-1.6-6.3s0.5-4.4,1.6-6.2s2.6-3.3,4.5-4.3
		c1.9-1,4.1-1.6,6.5-1.6c2.4,0,4.6,0.5,6.5,1.6c1.9,1,3.4,2.5,4.5,4.3s1.6,3.9,1.6,6.2s-0.5,4.4-1.6,6.3c-1.1,1.8-2.6,3.3-4.5,4.3
		c-1.9,1-4.1,1.6-6.5,1.6C643.8,257.5,641.7,257,639.8,256z M651.3,250.7c1.3-1.4,2-3.1,2-5.4s-0.7-4-2-5.4s-3-2-5-2
		c-2,0-3.7,0.7-5,2c-1.3,1.4-2,3.1-2,5.4s0.7,4,2,5.4c1.3,1.4,3,2,5,2C648.3,252.8,650,252.1,651.3,250.7z"/>
	<path class="st1" d="M677.9,233.3v5.3c-0.5-0.1-0.9-0.1-1.3-0.1c-2.2,0-3.8,0.6-5.1,1.9c-1.2,1.3-1.8,3.1-1.8,5.4v11.5h-5.5v-23.7
		h5.3v3.5C671,234.5,673.8,233.3,677.9,233.3z"/>
	<path class="st1" d="M697.7,255.9c-0.6,0.5-1.4,0.9-2.4,1.2c-0.9,0.3-1.9,0.4-2.9,0.4c-2.6,0-4.6-0.7-6-2s-2.1-3.3-2.1-5.9v-11.4
		h-3.9v-4.4h3.9v-5.4h5.5v5.4h6.3v4.4h-6.3v11.3c0,1.2,0.3,2,0.8,2.6c0.6,0.6,1.4,0.9,2.4,0.9c1.2,0,2.3-0.3,3.1-1L697.7,255.9z"/>
	<path class="st1" d="M719.3,235.8c1.8,1.7,2.8,4.2,2.8,7.6v13.9h-5.2v-2.9c-0.7,1-1.6,1.8-2.9,2.4c-1.3,0.5-2.8,0.8-4.5,0.8
		c-1.8,0-3.3-0.3-4.7-0.9c-1.3-0.6-2.4-1.4-3.1-2.5c-0.7-1.1-1.1-2.3-1.1-3.7c0-2.1,0.8-3.8,2.4-5.1c1.6-1.3,4.1-1.9,7.5-1.9h6.1
		V243c0-1.7-0.5-2.9-1.5-3.8c-1-0.9-2.5-1.3-4.4-1.3c-1.3,0-2.6,0.2-3.9,0.6c-1.3,0.4-2.4,1-3.3,1.7l-2.2-4c1.2-0.9,2.7-1.7,4.5-2.2
		c1.7-0.5,3.6-0.8,5.5-0.8C714.7,233.3,717.4,234.1,719.3,235.8z M714.2,252.5c1.1-0.6,1.8-1.5,2.3-2.7v-2.7h-5.7
		c-3.2,0-4.8,1-4.8,3.1c0,1,0.4,1.8,1.2,2.4c0.8,0.6,1.9,0.9,3.3,0.9C711.9,253.5,713.1,253.2,714.2,252.5z"/>
	<path class="st1" d="M743.3,255.9c-0.6,0.5-1.4,0.9-2.4,1.2c-0.9,0.3-1.9,0.4-2.9,0.4c-2.6,0-4.6-0.7-6-2s-2.1-3.3-2.1-5.9v-11.4
		H726v-4.4h3.9v-5.4h5.5v5.4h6.3v4.4h-6.3v11.3c0,1.2,0.3,2,0.8,2.6c0.6,0.6,1.4,0.9,2.4,0.9c1.2,0,2.3-0.3,3.1-1L743.3,255.9z"/>
	<path class="st1" d="M748.2,228.7c-0.7-0.6-1-1.4-1-2.4s0.3-1.7,1-2.4c0.7-0.6,1.5-1,2.5-1s1.8,0.3,2.5,0.9c0.7,0.6,1,1.4,1,2.3
		c0,1-0.3,1.8-1,2.5c-0.7,0.7-1.5,1-2.5,1C749.7,229.7,748.8,229.3,748.2,228.7z M747.9,233.6h5.5v23.7h-5.5V233.6z"/>
	<path class="st1" d="M764.9,256c-1.9-1-3.4-2.5-4.5-4.3c-1.1-1.8-1.6-3.9-1.6-6.3s0.5-4.4,1.6-6.2s2.6-3.3,4.5-4.3
		c1.9-1,4.1-1.6,6.5-1.6c2.4,0,4.6,0.5,6.5,1.6c1.9,1,3.4,2.5,4.5,4.3s1.6,3.9,1.6,6.2s-0.5,4.4-1.6,6.3c-1.1,1.8-2.6,3.3-4.5,4.3
		c-1.9,1-4.1,1.6-6.5,1.6C768.9,257.5,766.8,257,764.9,256z M776.4,250.7c1.3-1.4,2-3.1,2-5.4s-0.7-4-2-5.4s-3-2-5-2
		c-2,0-3.7,0.7-5,2c-1.3,1.4-2,3.1-2,5.4s0.7,4,2,5.4c1.3,1.4,3,2,5,2C773.4,252.8,775,252.1,776.4,250.7z"/>
	<path class="st1" d="M809.9,235.9c1.8,1.7,2.7,4.3,2.7,7.8v13.6H807v-12.8c0-2.1-0.5-3.6-1.5-4.7c-1-1-2.4-1.6-4.2-1.6
		c-2,0-3.6,0.6-4.8,1.8c-1.2,1.2-1.8,3-1.8,5.3v12h-5.5v-23.7h5.3v3.1c0.9-1.1,2.1-1.9,3.5-2.5c1.4-0.6,3-0.8,4.7-0.8
		C805.7,233.3,808.1,234.2,809.9,235.9z"/>
	<path class="st1" d="M835,256.6c-2.2-0.7-4-1.6-5.3-2.7l2-4.5c1.3,1,2.8,1.8,4.7,2.5c1.8,0.6,3.7,1,5.6,1c2.3,0,4-0.4,5.2-1.1
		c1.1-0.7,1.7-1.7,1.7-2.9c0-0.9-0.3-1.6-1-2.2c-0.6-0.6-1.4-1-2.4-1.4c-1-0.3-2.3-0.7-4-1.1c-2.4-0.6-4.3-1.1-5.7-1.7
		c-1.5-0.6-2.7-1.4-3.8-2.6c-1-1.2-1.6-2.8-1.6-4.9c0-1.7,0.5-3.3,1.4-4.7c0.9-1.4,2.3-2.5,4.2-3.3c1.9-0.8,4.2-1.2,6.9-1.2
		c1.9,0,3.8,0.2,5.6,0.7s3.4,1.2,4.7,2l-1.8,4.5c-1.4-0.8-2.8-1.4-4.3-1.8c-1.5-0.4-2.9-0.6-4.3-0.6c-2.3,0-4,0.4-5.1,1.2
		c-1.1,0.8-1.7,1.8-1.7,3.1c0,0.9,0.3,1.6,1,2.2c0.6,0.6,1.4,1,2.4,1.3s2.3,0.7,4,1.1c2.3,0.5,4.2,1.1,5.7,1.7
		c1.5,0.6,2.7,1.5,3.8,2.6c1,1.2,1.6,2.8,1.6,4.8c0,1.7-0.5,3.3-1.4,4.7c-0.9,1.4-2.3,2.5-4.2,3.3c-1.9,0.8-4.2,1.2-6.9,1.2
		C839.6,257.7,837.3,257.3,835,256.6z"/>
	<path class="st1" d="M881.8,247.2h-18.6c0.3,1.7,1.2,3.1,2.5,4.1c1.4,1,3.1,1.5,5.1,1.5c2.6,0,4.7-0.9,6.4-2.6l3,3.4
		c-1.1,1.3-2.4,2.2-4,2.9c-1.6,0.6-3.5,1-5.5,1c-2.6,0-4.9-0.5-6.9-1.6c-2-1-3.5-2.5-4.6-4.3c-1.1-1.8-1.6-3.9-1.6-6.3
		c0-2.3,0.5-4.4,1.6-6.2c1-1.8,2.5-3.3,4.4-4.3c1.9-1,4-1.6,6.3-1.6c2.3,0,4.4,0.5,6.2,1.5s3.2,2.5,4.3,4.3c1,1.8,1.5,4,1.5,6.4
		C881.9,245.9,881.9,246.5,881.8,247.2z M865.5,239.3c-1.2,1-2,2.4-2.2,4.2h13.4c-0.2-1.7-1-3.1-2.2-4.2c-1.2-1.1-2.7-1.6-4.5-1.6
		C868.2,237.7,866.7,238.2,865.5,239.3z"/>
	<path class="st1" d="M900.9,233.3v5.3c-0.5-0.1-0.9-0.1-1.3-0.1c-2.2,0-3.8,0.6-5.1,1.9c-1.2,1.3-1.8,3.1-1.8,5.4v11.5h-5.5v-23.7
		h5.3v3.5C894.1,234.5,896.9,233.3,900.9,233.3z"/>
	<path class="st1" d="M928.7,233.6l-10.1,23.7h-5.7l-10.1-23.7h5.8l7.4,17.5l7.6-17.5H928.7z"/>
	<path class="st1" d="M932.4,228.7c-0.7-0.6-1-1.4-1-2.4s0.3-1.7,1-2.4c0.7-0.6,1.5-1,2.5-1s1.8,0.3,2.5,0.9c0.7,0.6,1,1.4,1,2.3
		c0,1-0.3,1.8-1,2.5c-0.7,0.7-1.5,1-2.5,1C933.9,229.7,933.1,229.3,932.4,228.7z M932.1,233.6h5.5v23.7h-5.5V233.6z"/>
	<path class="st1" d="M949.2,256c-1.9-1-3.5-2.5-4.6-4.3c-1.1-1.8-1.6-3.9-1.6-6.3s0.5-4.4,1.6-6.2c1.1-1.8,2.6-3.3,4.5-4.3
		c1.9-1,4.1-1.6,6.6-1.6c2.3,0,4.4,0.5,6.1,1.4s3.1,2.3,4,4.1l-4.3,2.5c-0.7-1.1-1.5-1.9-2.5-2.5c-1-0.5-2.1-0.8-3.3-0.8
		c-2.1,0-3.8,0.7-5.1,2c-1.4,1.3-2,3.1-2,5.4s0.7,4,2,5.4s3.1,2,5.2,2c1.2,0,2.3-0.3,3.3-0.8c1-0.5,1.9-1.4,2.5-2.5l4.3,2.5
		c-0.9,1.8-2.3,3.1-4,4.1c-1.8,1-3.8,1.4-6.1,1.4C953.3,257.5,951.1,257,949.2,256z"/>
	<path class="st1" d="M992.5,247.2h-18.6c0.3,1.7,1.2,3.1,2.5,4.1c1.4,1,3.1,1.5,5.1,1.5c2.6,0,4.7-0.9,6.4-2.6l3,3.4
		c-1.1,1.3-2.4,2.2-4,2.9c-1.6,0.6-3.5,1-5.5,1c-2.6,0-4.9-0.5-6.9-1.6c-2-1-3.5-2.5-4.6-4.3c-1.1-1.8-1.6-3.9-1.6-6.3
		c0-2.3,0.5-4.4,1.6-6.2c1-1.8,2.5-3.3,4.4-4.3c1.9-1,4-1.6,6.3-1.6c2.3,0,4.4,0.5,6.2,1.5s3.2,2.5,4.3,4.3c1,1.8,1.5,4,1.5,6.4
		C992.5,245.9,992.5,246.5,992.5,247.2z M976.1,239.3c-1.2,1-2,2.4-2.2,4.2h13.4c-0.2-1.7-1-3.1-2.2-4.2c-1.2-1.1-2.7-1.6-4.5-1.6
		C978.8,237.7,977.3,238.2,976.1,239.3z"/>
	<path class="st1" d="M999.5,256.8c-1.8-0.5-3.3-1.1-4.4-1.9l2.1-4.2c1.1,0.7,2.3,1.3,3.8,1.7c1.5,0.4,3,0.6,4.4,0.6
		c3.3,0,5-0.9,5-2.6c0-0.8-0.4-1.4-1.3-1.7c-0.8-0.3-2.2-0.6-4.1-0.9c-1.9-0.3-3.5-0.6-4.8-1c-1.2-0.4-2.3-1.1-3.2-2
		c-0.9-1-1.4-2.3-1.4-4c0-2.2,0.9-4,2.8-5.4c1.9-1.3,4.4-2,7.6-2c1.6,0,3.2,0.2,4.9,0.6c1.6,0.4,3,0.9,4,1.5l-2.1,4.2
		c-2-1.2-4.3-1.8-6.8-1.8c-1.6,0-2.9,0.2-3.7,0.7s-1.3,1.1-1.3,1.9c0,0.9,0.5,1.5,1.4,1.9c0.9,0.4,2.3,0.7,4.2,1
		c1.9,0.3,3.4,0.6,4.7,1c1.2,0.4,2.3,1,3.1,1.9c0.9,0.9,1.3,2.2,1.3,3.9c0,2.2-1,4-2.9,5.3c-1.9,1.3-4.5,2-7.8,2
		C1003.2,257.5,1001.4,257.3,999.5,256.8z"/>
</g>
</svg>
